<svg xmlns="http://www.w3.org/2000/svg" viewBox="0 0 400 400" width="400" height="400">
  <defs>
    <linearGradient id="bg-grad" x1="0%" y1="0%" x2="100%" y2="100%">
      <stop offset="0%" stop-color="#3b0764" />
      <stop offset="50%" stop-color="#6b21a8" />
      <stop offset="100%" stop-color="#a855f7" />
    </linearGradient>
  </defs>
  <rect width="400" height="400" rx="80" fill="url(#bg-grad)" />
  <path d="M140 100 L260 100 A60 60 0 0 1 320 160 A60 60 0 0 1 260 220 L180 220 L180 300 L140 300 Z M180 140 L180 180 L260 180 A20 20 0 0 0 280 160 A20 20 0 0 0 260 140 Z" fill="#ffffff" />
  <path d="M220 220 L300 300 L260 300 L180 220 Z" fill="#ffffff" />
</svg>